<?xml version="1.0" standalone="no"?>
<!DOCTYPE svg PUBLIC "-//W3C//DTD SVG 20010904//EN"
 "http://www.w3.org/TR/2001/REC-SVG-20010904/DTD/svg10.dtd">
<svg version="1.0" xmlns="http://www.w3.org/2000/svg"
 width="275.000000pt" height="183.000000pt" viewBox="0 0 275.000000 183.000000"
 preserveAspectRatio="xMidYMid meet">
<metadata>
Created by potrace 1.16, written by Peter Selinger 2001-2019
</metadata>
<g transform="translate(0.000000,183.000000) scale(0.100000,-0.100000)"
fill="#000000" stroke="none">
<path d="M1213 1191 c-67 -23 -129 -66 -159 -110 -13 -20 -24 -39 -24 -43 0
-3 19 -6 43 -5 32 2 54 11 85 36 101 79 229 79 327 -1 28 -24 50 -33 82 -34
24 -1 43 1 43 5 0 20 -55 82 -97 110 -91 61 -202 76 -300 42z"/>
<path d="M1243 1020 c-67 -40 -88 -111 -54 -178 61 -120 254 -94 276 38 19
115 -120 203 -222 140z"/>
<path d="M340 899 c0 -90 2 -100 18 -97 14 3 17 16 20 81 l3 78 42 -3 42 -3 2
-55 c1 -30 2 -65 2 -77 1 -14 7 -23 16 -23 12 0 15 17 15 90 0 88 -1 91 -26
100 -14 6 -50 10 -80 10 l-54 0 0 -101z"/>
<path d="M562 990 c-22 -9 -23 -14 -20 -92 l3 -83 38 -9 c23 -6 51 -6 75 0
l37 9 3 83 c3 81 2 82 -23 92 -32 12 -82 12 -113 0z"/>
<path d="M737 994 c-12 -12 -7 -128 6 -154 30 -59 128 -47 148 19 16 54 8 135
-13 139 -15 3 -18 -5 -18 -50 0 -82 -30 -124 -70 -98 -10 6 -17 32 -20 76 -5
62 -16 85 -33 68z"/>
<path d="M930 981 c0 -19 5 -21 60 -21 53 0 60 -2 60 -20 0 -16 -7 -20 -34
-20 -19 0 -46 -4 -60 -10 -22 -8 -26 -16 -26 -50 0 -34 4 -42 26 -50 14 -6 50
-10 80 -10 l54 0 0 89 c0 56 -4 92 -11 97 -7 4 -43 9 -80 12 -65 4 -69 4 -69
-17z"/>
<path d="M1557 993 c-11 -10 -8 -107 4 -141 21 -61 115 -68 145 -11 22 43 16
152 -8 157 -16 3 -18 -5 -18 -62 0 -46 -5 -69 -16 -81 -38 -38 -74 7 -74 93 0
37 -4 52 -13 52 -8 0 -17 -3 -20 -7z"/>
<path d="M1843 990 c-19 -8 -23 -17 -23 -49 0 -47 6 -51 74 -60 36 -4 51 -10
51 -21 0 -21 -68 -26 -85 -6 -19 24 -40 19 -40 -9 0 -55 147 -60 160 -5 14 55
-14 80 -86 80 -28 0 -35 4 -32 18 5 24 65 29 82 6 15 -20 36 -11 36 17 0 34
-82 51 -137 29z"/>
<path d="M2122 990 c-22 -9 -23 -14 -20 -92 l3 -83 38 -9 c23 -6 51 -6 75 0
l37 9 3 83 c3 81 2 82 -23 92 -32 12 -82 12 -113 0z"/>
<path d="M2297 993 c-3 -5 -5 -49 -4 -98 2 -76 5 -90 19 -93 15 -3 18 7 20 75
l3 78 40 0 40 0 3 -77 c3 -70 5 -78 22 -78 18 0 20 7 20 83 0 45 -4 88 -9 96
-10 16 -145 29 -154 14z"/>
<path d="M1030 761 c0 -20 87 -104 134 -129 46 -24 61 -27 156 -27 95 0 110 3
156 27 47 25 134 109 134 129 0 5 -21 9 -46 9 -38 0 -53 -6 -82 -31 -50 -44
-92 -59 -162 -59 -70 0 -112 15 -162 59 -29 25 -44 31 -82 31 -25 0 -46 -4
-46 -9z"/>
</g>
</svg>
