<?xml version="1.0" standalone="no"?>
<!DOCTYPE svg PUBLIC "-//W3C//DTD SVG 20010904//EN"
 "http://www.w3.org/TR/2001/REC-SVG-20010904/DTD/svg10.dtd">
<svg version="1.0" xmlns="http://www.w3.org/2000/svg"
 width="401.000000pt" height="157.000000pt" viewBox="0 0 401.000000 157.000000"
 preserveAspectRatio="xMidYMid meet">

<g transform="translate(0.000000,157.000000) scale(0.100000,-0.100000)"
fill="#000000" stroke="none">
<path d="M443 1375 c-198 -36 -304 -142 -304 -305 -1 -105 38 -176 126 -230
52 -32 138 -58 284 -86 206 -38 263 -59 286 -105 33 -63 9 -126 -61 -159 -115
-56 -380 -28 -606 65 -16 7 -18 -2 -18 -94 l0 -100 52 -16 c115 -32 289 -55
429 -55 336 0 494 91 515 298 13 124 -32 216 -132 269 -78 41 -140 58 -314 88
-186 32 -214 40 -253 75 -26 23 -32 35 -32 70 0 35 6 47 32 71 44 38 100 52
218 53 112 0 211 -15 321 -49 l74 -23 0 98 0 98 -52 12 c-174 37 -435 49 -565
25z"/>
<path d="M1832 1092 l-172 -287 190 -3 191 -2 -3 -133 -3 -132 -270 -3 -270
-2 -72 -120 -72 -120 664 0 665 0 -39 63 c-54 88 -633 1022 -635 1024 -1 1
-79 -127 -174 -285z"/>
<path d="M2920 830 l0 -550 495 0 495 0 0 95 0 95 -325 0 -325 0 0 455 0 455
-170 0 -170 0 0 -550z"/>
</g>
</svg>
