<?xml version="1.0" standalone="no"?>
<!DOCTYPE svg PUBLIC "-//W3C//DTD SVG 20010904//EN"
 "http://www.w3.org/TR/2001/REC-SVG-20010904/DTD/svg10.dtd">
<svg version="1.0" xmlns="http://www.w3.org/2000/svg"
 width="225.000000pt" height="225.000000pt" viewBox="0 0 225.000000 225.000000"
 preserveAspectRatio="xMidYMid meet">
<metadata>
Created by potrace 1.16, written by Peter Selinger 2001-2019
</metadata>
<g transform="translate(0.000000,225.000000) scale(0.100000,-0.100000)"
fill="#000000" stroke="none">
<path d="M370 1517 c-14 -7 -31 -25 -38 -40 -12 -25 -5 -51 79 -304 132 -399
134 -403 219 -403 60 0 80 16 105 86 38 103 44 113 76 129 40 21 93 14 125
-16 13 -12 33 -53 45 -91 26 -82 53 -108 113 -108 45 0 79 18 97 53 24 43 209
599 209 626 0 57 -90 99 -134 62 -9 -8 -28 -52 -43 -99 -38 -122 -89 -161
-168 -128 -37 16 -50 35 -72 109 -23 80 -41 107 -80 124 -74 30 -121 -5 -158
-118 -32 -94 -57 -119 -122 -119 -61 0 -93 35 -118 127 -19 71 -58 123 -92
123 -10 0 -29 -6 -43 -13z"/>
</g>
</svg>
